# xmcd
#
# Track frame offsets:
#	150
#	10505
#	22760
#	36340
#	49745
#	62805
#	74510
#	84450
#	97487
#	111100
#	124085
#	135810
#	147775
#	158745
#	170837
#	184212
#	196910
#	208957
#	221672
#	235437
#	248172
#	259610
#	271317
#	282235
#	295940
#
# Disc length: 4109 seconds
# Revision: 0
# Processed by: cddbd v1.5.2PL0 Copyright (c) Steve Scherf et al.
# Submitted via: dBpowerAMP V12.0
#
DISCID=79100b19
DTITLE=Ralph Willis - Complete Works, Vol. 1: 1944-1951
DYEAR=1994
DGENRE=Blues
TTITLE0=Worried Blues
TTITLE1=Comb Your Kitty Kat
TTITLE2=Just a Note
TTITLE3=Church Bells
TTITLE4=Trouble Don't Last
TTITLE5=Shake That Thing
TTITLE6=So Many Days
TTITLE7=That Gal's No Good
TTITLE8=New Goin' Down Slow
TTITLE9=Goin' to Chattanooga
TTITLE10=Steel Mill Blues
TTITLE11=I Will Never Love Again
TTITLE12=Goin' to Virginia
TTITLE13=Boar Hog Blues
TTITLE14=Eloise
TTITLE15=I've Been a Fool
TTITLE16=Christmas Blues
TTITLE17=Amen Blues
TTITLE18=Neighborhood Blues
TTITLE19=Mama, Mama Blues
TTITLE20=Cool That Thing
TTITLE21=Sportin' Life
TTITLE22=I'm Gonna Rock
TTITLE23=Every Day I Weep and Moan
TTITLE24=Somebody's Got to Go
EXTD=
EXTT0=
EXTT1=
EXTT2=
EXTT3=
EXTT4=
EXTT5=
EXTT6=
EXTT7=
EXTT8=
EXTT9=
EXTT10=
EXTT11=
EXTT12=
EXTT13=
EXTT14=
EXTT15=
EXTT16=
EXTT17=
EXTT18=
EXTT19=
EXTT20=
EXTT21=
EXTT22=
EXTT23=
EXTT24=
PLAYORDER=
